# Blender v2.75 (sub 0) OBJ File: ''
# www.blender.org
mtllib untitled.mtl
o Cylinder
v 0.011007 0.277362 -1.259497
v 0.258865 0.277362 -1.235085
v 0.497198 0.277362 -1.162788
v 0.716846 0.277362 -1.045383
v 0.909370 0.277362 -0.887383
v 1.067370 0.277362 -0.694859
v 1.184775 0.277362 -0.475211
v 1.257072 0.277362 -0.236878
v 1.281484 0.277362 0.010980
v 0.011007 3.074744 0.010980
v 1.257072 0.277362 0.258838
v 1.184775 0.277362 0.497170
v 1.067370 0.277362 0.716819
v 0.909370 0.277362 0.909343
v 0.716846 0.277362 1.067343
v 0.497197 0.277362 1.184748
v 0.258865 0.277362 1.257045
v 0.011007 0.277362 1.281457
v -0.236851 0.277362 1.257045
v -0.475184 0.277362 1.184748
v -0.694833 0.277362 1.067343
v -0.887357 0.277362 0.909343
v -1.045357 0.277362 0.716819
v -1.162761 0.277362 0.497170
v -1.235058 0.277362 0.258837
v -1.259470 0.277362 0.010979
v -1.235058 0.277362 -0.236879
v -1.162760 0.277362 -0.475212
v -1.045355 0.277362 -0.694861
v -0.887355 0.277362 -0.887384
v -0.694831 0.277362 -1.045384
v -0.475182 0.277362 -1.162789
v -0.236849 0.277362 -1.235086
v 0.000000 2.007829 -1.000000
v 0.195090 2.007829 -0.980785
v 0.382683 2.007829 -0.923880
v 0.555570 2.007829 -0.831470
v 0.707107 2.007829 -0.707107
v 0.831470 2.007829 -0.555570
v 0.923880 2.007829 -0.382683
v 0.980785 2.007829 -0.195090
v 1.000000 2.007829 -0.000000
v 0.000000 4.007830 0.000000
v 0.980785 2.007829 0.195090
v 0.923880 2.007829 0.382683
v 0.831470 2.007829 0.555570
v 0.707107 2.007829 0.707107
v 0.555570 2.007829 0.831470
v 0.382683 2.007829 0.923880
v 0.195090 2.007829 0.980785
v -0.000000 2.007829 1.000000
v -0.195091 2.007829 0.980785
v -0.382684 2.007829 0.923879
v -0.555571 2.007829 0.831469
v -0.707107 2.007829 0.707106
v -0.831470 2.007829 0.555570
v -0.923880 2.007829 0.382683
v -0.980785 2.007829 0.195089
v -1.000000 2.007829 -0.000001
v -0.980785 2.007829 -0.195091
v -0.923879 2.007829 -0.382684
v -0.831469 2.007829 -0.555571
v -0.707106 2.007829 -0.707108
v -0.555569 2.007829 -0.831470
v -0.382682 2.007829 -0.923880
v -0.195089 2.007829 -0.980786
v -0.005070 -0.493738 -0.245723
v -0.005070 0.597705 -0.245723
v 0.041967 -0.493738 -0.241091
v 0.041967 0.597705 -0.241091
v 0.087197 -0.493738 -0.227370
v 0.087197 0.597705 -0.227370
v 0.128881 -0.493738 -0.205090
v 0.128881 0.597705 -0.205090
v 0.165417 -0.493738 -0.175105
v 0.165417 0.597705 -0.175105
v 0.195402 -0.493738 -0.138569
v 0.195402 0.597705 -0.138569
v 0.217682 -0.493738 -0.096885
v 0.217682 0.597705 -0.096885
v 0.231402 -0.493738 -0.051656
v 0.231402 0.597705 -0.051656
v 0.236035 -0.493738 -0.004618
v 0.236035 0.597705 -0.004618
v 0.231402 -0.493738 0.042419
v 0.231402 0.597705 0.042419
v 0.217682 -0.493738 0.087649
v 0.217682 0.597705 0.087649
v 0.195402 -0.493738 0.129333
v 0.195402 0.597705 0.129333
v 0.165417 -0.493738 0.165869
v 0.165417 0.597705 0.165869
v 0.128881 -0.493738 0.195853
v 0.128881 0.597705 0.195853
v 0.087197 -0.493738 0.218134
v 0.087197 0.597705 0.218134
v 0.041967 -0.493738 0.231854
v 0.041967 0.597705 0.231854
v -0.005070 -0.493738 0.236487
v -0.005070 0.597705 0.236487
v -0.052107 -0.493738 0.231854
v -0.052107 0.597705 0.231854
v -0.097337 -0.493738 0.218134
v -0.097337 0.597705 0.218134
v -0.139021 -0.493738 0.195853
v -0.139021 0.597705 0.195853
v -0.175557 -0.493738 0.165869
v -0.175557 0.597705 0.165869
v -0.205542 -0.493738 0.129332
v -0.205542 0.597705 0.129332
v -0.227822 -0.493738 0.087648
v -0.227822 0.597705 0.087648
v -0.241542 -0.493738 0.042419
v -0.241542 0.597705 0.042419
v -0.246175 -0.493738 -0.004619
v -0.246175 0.597705 -0.004619
v -0.241542 -0.493738 -0.051656
v -0.241542 0.597705 -0.051656
v -0.227822 -0.493738 -0.096885
v -0.227822 0.597705 -0.096885
v -0.205541 -0.493738 -0.138569
v -0.205541 0.597705 -0.138569
v -0.175557 -0.493738 -0.175106
v -0.175557 0.597705 -0.175106
v -0.139021 -0.493738 -0.205090
v -0.139021 0.597705 -0.205090
v -0.097337 -0.493738 -0.227370
v -0.097337 0.597705 -0.227370
v -0.052107 -0.493738 -0.241091
v -0.052107 0.597705 -0.241091
vt 0.844111 0.872977
vt 0.835109 0.872977
vt 0.835108 0.775268
vt 0.826279 0.872977
vt 0.826279 0.775268
vt 0.817962 0.872977
vt 0.817962 0.775268
vt 0.810477 0.872977
vt 0.810477 0.775268
vt 0.804111 0.872977
vt 0.804111 0.775268
vt 0.972147 0.639415
vt 0.964662 0.639415
vt 0.964662 0.541705
vt 0.956345 0.639415
vt 0.956345 0.541705
vt 0.947516 0.639415
vt 0.947516 0.541705
vt 0.938513 0.639415
vt 0.938513 0.541705
vt 0.929684 0.639415
vt 0.929684 0.541705
vt 0.921367 0.639415
vt 0.921367 0.541705
vt 0.913882 0.639415
vt 0.913882 0.541705
vt 0.887111 0.892519
vt 0.894596 0.892519
vt 0.894596 0.990229
vt 0.902913 0.892519
vt 0.902913 0.990229
vt 0.911742 0.892519
vt 0.911742 0.990229
vt 0.920745 0.892519
vt 0.920745 0.990229
vt 0.929574 0.892519
vt 0.929574 0.990229
vt 0.937891 0.892519
vt 0.937891 0.990229
vt 0.945376 0.892519
vt 0.945376 0.990229
vt 0.951742 0.892519
vt 0.951742 0.990229
vt 0.804111 0.892519
vt 0.811597 0.892519
vt 0.811597 0.990229
vt 0.819914 0.892519
vt 0.819914 0.990229
vt 0.828743 0.892519
vt 0.828743 0.990229
vt 0.837745 0.892519
vt 0.837745 0.990229
vt 0.846575 0.892519
vt 0.846575 0.990229
vt 0.854892 0.892519
vt 0.854892 0.990229
vt 0.862377 0.892519
vt 0.862377 0.990229
vt 0.868742 0.892519
vt 0.868742 0.990229
vt 0.875108 0.872977
vt 0.868742 0.872977
vt 0.868742 0.775268
vt 0.861257 0.872977
vt 0.861257 0.775268
vt 0.845311 0.755726
vt 0.804111 0.702317
vt 0.854313 0.658486
vt 0.852940 0.872977
vt 0.844111 0.775268
vt 0.852940 0.775268
vt 0.854313 0.638944
vt 0.845311 0.541705
vt 0.895513 0.585536
vt 0.972147 0.541705
vt 0.887111 0.990229
vt 0.804111 0.990229
vt 0.875108 0.775268
vt 0.863143 0.753857
vt 0.854313 0.755726
vt 0.871460 0.750192
vt 0.895513 0.711895
vt 0.885310 0.738099
vt 0.878945 0.744871
vt 0.893757 0.721288
vt 0.890312 0.730136
vt 0.893757 0.692924
vt 0.895513 0.702317
vt 0.885310 0.676113
vt 0.890312 0.684076
vt 0.871460 0.664020
vt 0.878945 0.669341
vt 0.863143 0.660355
vt 0.836482 0.660355
vt 0.845311 0.658486
vt 0.828165 0.664020
vt 0.809313 0.684076
vt 0.814314 0.676113
vt 0.820680 0.669341
vt 0.805868 0.692924
vt 0.805868 0.721288
vt 0.804111 0.711895
vt 0.814314 0.738099
vt 0.809313 0.730136
vt 0.828165 0.750192
vt 0.820680 0.744871
vt 0.836482 0.753857
vt 0.809313 0.613355
vt 0.805868 0.604506
vt 0.804111 0.595113
vt 0.820680 0.628090
vt 0.814314 0.621318
vt 0.836482 0.637076
vt 0.828165 0.633411
vt 0.845311 0.638944
vt 0.871460 0.633411
vt 0.863143 0.637076
vt 0.885310 0.621318
vt 0.878945 0.628090
vt 0.890312 0.613355
vt 0.895513 0.595113
vt 0.893757 0.604506
vt 0.878945 0.552559
vt 0.893757 0.576143
vt 0.885310 0.559331
vt 0.890312 0.567295
vt 0.863143 0.543573
vt 0.871460 0.547238
vt 0.854313 0.541705
vt 0.828165 0.547238
vt 0.836482 0.543573
vt 0.814314 0.559331
vt 0.820680 0.552559
vt 0.805868 0.576143
vt 0.809313 0.567295
vt 0.804111 0.585536
vt 0.135931 0.038929
vt 0.250000 0.265967
vt 0.096489 0.066967
vt 0.062946 0.102651
vt 0.036592 0.144613
vt 0.179756 0.019617
vt 0.226282 0.009771
vt 0.273718 0.009771
vt 0.320243 0.019616
vt 0.364069 0.038929
vt 0.403511 0.066966
vt 0.437054 0.102651
vt 0.463408 0.144613
vt 0.481561 0.191237
vt 0.490816 0.240734
vt 0.490816 0.291200
vt 0.481561 0.340697
vt 0.463408 0.387321
vt 0.437054 0.429282
vt 0.403511 0.464967
vt 0.364069 0.493005
vt 0.320243 0.512318
vt 0.273718 0.522163
vt 0.226282 0.522163
vt 0.179757 0.512318
vt 0.135931 0.493005
vt 0.096489 0.464967
vt 0.062946 0.429282
vt 0.036592 0.387321
vt 0.018439 0.340697
vt 0.009184 0.291200
vt 0.009184 0.240734
vt 0.018439 0.191237
vt 0.562946 0.429282
vt 0.509184 0.240734
vt 0.937054 0.102652
vt 0.726282 0.522163
vt 0.596489 0.464967
vt 0.679756 0.512317
vt 0.635931 0.493005
vt 0.820243 0.512318
vt 0.773718 0.522163
vt 0.864069 0.493005
vt 0.990816 0.291200
vt 0.937054 0.429283
vt 0.903511 0.464968
vt 0.981561 0.340697
vt 0.963408 0.387321
vt 0.981561 0.191237
vt 0.990816 0.240734
vt 0.963408 0.144613
vt 0.864069 0.038929
vt 0.903511 0.066967
vt 0.773718 0.009771
vt 0.820243 0.019616
vt 0.679757 0.019616
vt 0.726282 0.009771
vt 0.635931 0.038929
vt 0.562946 0.102652
vt 0.596489 0.066967
vt 0.518439 0.191237
vt 0.536592 0.144613
vt 0.518439 0.340697
vt 0.509184 0.291200
vt 0.536592 0.387321
vt 0.345963 0.871905
vt 0.198732 0.743358
vt 0.366707 0.838877
vt 0.380995 0.802179
vt 0.388279 0.763220
vt 0.319561 0.899993
vt 0.288516 0.922061
vt 0.254021 0.937262
vt 0.217401 0.945012
vt 0.180063 0.945012
vt 0.143443 0.937262
vt 0.108948 0.922061
vt 0.077902 0.899993
vt 0.051501 0.871905
vt 0.030757 0.838877
vt 0.016469 0.802179
vt 0.009184 0.763220
vt 0.009184 0.723497
vt 0.016469 0.684538
vt 0.030757 0.647840
vt 0.051501 0.614812
vt 0.077902 0.586724
vt 0.108947 0.564655
vt 0.143443 0.549454
vt 0.180063 0.541705
vt 0.217401 0.541705
vt 0.254021 0.549454
vt 0.288516 0.564655
vt 0.319561 0.586724
vt 0.345963 0.614812
vt 0.366706 0.647840
vt 0.380995 0.684538
vt 0.388279 0.723497
vt 0.685980 0.922061
vt 0.506411 0.564656
vt 0.764170 0.647840
vt 0.540906 0.937262
vt 0.448964 0.871905
vt 0.428221 0.838877
vt 0.506411 0.922061
vt 0.475366 0.899993
vt 0.614864 0.945012
vt 0.577526 0.945012
vt 0.651484 0.937262
vt 0.743426 0.871905
vt 0.717025 0.899993
vt 0.764170 0.838877
vt 0.785743 0.723497
vt 0.785743 0.763220
vt 0.778458 0.802179
vt 0.778458 0.684538
vt 0.651484 0.549454
vt 0.743426 0.614812
vt 0.685980 0.564655
vt 0.717025 0.586724
vt 0.577526 0.541705
vt 0.614864 0.541705
vt 0.540906 0.549454
vt 0.448964 0.614812
vt 0.475366 0.586724
vt 0.413932 0.684538
vt 0.428221 0.647840
vt 0.406648 0.723497
vt 0.413932 0.802179
vt 0.406648 0.763220
vn 0.098000 0.000000 -0.995200
vn 0.290300 0.000000 -0.956900
vn 0.471400 0.000000 -0.881900
vn 0.634400 0.000000 -0.773000
vn 0.773000 0.000000 -0.634400
vn 0.881900 0.000000 -0.471400
vn 0.956900 0.000000 -0.290300
vn 0.995200 0.000000 -0.098000
vn 0.995200 0.000000 0.098000
vn 0.956900 0.000000 0.290300
vn 0.881900 0.000000 0.471400
vn 0.773000 0.000000 0.634400
vn 0.634400 0.000000 0.773000
vn 0.471400 0.000000 0.881900
vn 0.290300 0.000000 0.956900
vn 0.098000 0.000000 0.995200
vn -0.098000 0.000000 0.995200
vn -0.290300 0.000000 0.956900
vn -0.471400 0.000000 0.881900
vn -0.634400 0.000000 0.773000
vn -0.773000 0.000000 0.634400
vn -0.881900 0.000000 0.471400
vn -0.956900 0.000000 0.290300
vn -0.995200 0.000000 0.098000
vn -0.995200 0.000000 -0.098000
vn -0.956900 0.000000 -0.290300
vn -0.881900 0.000000 -0.471400
vn -0.773000 0.000000 -0.634400
vn -0.634400 0.000000 -0.773000
vn -0.471400 0.000000 -0.881900
vn 0.000000 1.000000 0.000000
vn -0.098000 0.000000 -0.995200
vn -0.290300 0.000000 -0.956900
vn 0.000000 -1.000000 0.000000
vn -0.264500 0.411900 -0.872000
vn 0.089300 0.411900 -0.906900
vn -0.429600 0.411900 -0.803600
vn -0.578100 0.411900 -0.704400
vn -0.704400 0.411900 -0.578100
vn -0.803600 0.411900 -0.429600
vn -0.872000 0.411900 -0.264500
vn -0.906900 0.411900 -0.089300
vn -0.906900 0.411900 0.089300
vn -0.872000 0.411900 0.264500
vn -0.803600 0.411900 0.429600
vn -0.704400 0.411900 0.578100
vn -0.578100 0.411900 0.704400
vn -0.429600 0.411900 0.803600
vn -0.264500 0.411900 0.872000
vn -0.089300 0.411900 0.906900
vn 0.089300 0.411900 0.906900
vn 0.264500 0.411900 0.872000
vn 0.429600 0.411900 0.803600
vn 0.578100 0.411900 0.704400
vn 0.704400 0.411900 0.578100
vn 0.803600 0.411900 0.429600
vn 0.872000 0.411900 0.264500
vn 0.906900 0.411900 0.089300
vn 0.906900 0.411900 -0.089300
vn 0.872000 0.411900 -0.264500
vn 0.803600 0.411900 -0.429600
vn 0.704400 0.411900 -0.578100
vn 0.578100 0.411900 -0.704400
vn 0.429600 0.411900 -0.803600
vn -0.089300 0.411900 -0.906900
vn 0.264500 0.411900 -0.872000
vn -0.259900 0.445500 -0.856700
vn 0.087800 0.445500 -0.891000
vn -0.422000 0.445500 -0.789600
vn -0.568000 0.445500 -0.692100
vn -0.692100 0.445500 -0.568000
vn -0.789600 0.445500 -0.422000
vn -0.856700 0.445500 -0.259900
vn -0.891000 0.445500 -0.087800
vn -0.891000 0.445500 0.087800
vn -0.856700 0.445500 0.259900
vn -0.789600 0.445500 0.422000
vn -0.692100 0.445500 0.568000
vn -0.568000 0.445500 0.692100
vn -0.422000 0.445500 0.789600
vn -0.259900 0.445500 0.856700
vn -0.087800 0.445500 0.891000
vn 0.087800 0.445500 0.891000
vn 0.259900 0.445500 0.856700
vn 0.422000 0.445500 0.789600
vn 0.568000 0.445500 0.692100
vn 0.692100 0.445500 0.568000
vn 0.789600 0.445500 0.422000
vn 0.856700 0.445500 0.259900
vn 0.891000 0.445500 0.087800
vn 0.891000 0.445500 -0.087800
vn 0.856700 0.445500 -0.259900
vn 0.789600 0.445500 -0.422000
vn 0.692100 0.445500 -0.568000
vn 0.568000 0.445500 -0.692100
vn 0.422000 0.445500 -0.789600
vn -0.087800 0.445500 -0.891000
vn 0.259900 0.445500 -0.856700
usemtl Material.003
s off
f 68/1/1 70/2/1 69/3/1
f 70/2/2 72/4/2 71/5/2
f 72/4/3 74/6/3 73/7/3
f 74/6/4 76/8/4 75/9/4
f 76/8/5 78/10/5 77/11/5
f 78/12/6 80/13/6 79/14/6
f 80/13/7 82/15/7 81/16/7
f 82/15/8 84/17/8 83/18/8
f 84/17/9 86/19/9 85/20/9
f 86/19/10 88/21/10 87/22/10
f 88/21/11 90/23/11 89/24/11
f 90/23/12 92/25/12 91/26/12
f 92/27/13 94/28/13 93/29/13
f 94/28/14 96/30/14 95/31/14
f 96/30/15 98/32/15 97/33/15
f 98/32/16 100/34/16 99/35/16
f 100/34/17 102/36/17 101/37/17
f 102/36/18 104/38/18 103/39/18
f 104/38/19 106/40/19 105/41/19
f 106/40/20 108/42/20 107/43/20
f 108/44/21 110/45/21 109/46/21
f 110/45/22 112/47/22 111/48/22
f 112/47/23 114/49/23 113/50/23
f 114/49/24 116/51/24 115/52/24
f 116/51/25 118/53/25 117/54/25
f 118/53/26 120/55/26 119/56/26
f 120/55/27 122/57/27 121/58/27
f 122/57/28 124/59/28 123/60/28
f 124/61/29 126/62/29 125/63/29
f 126/62/30 128/64/30 127/65/30
f 70/66/31 118/67/31 102/68/31
f 130/69/32 68/1/32 67/70/32
f 128/64/33 130/69/33 129/71/33
f 115/72/34 83/73/34 99/74/34
f 67/70/1 68/1/1 69/3/1
f 69/3/2 70/2/2 71/5/2
f 71/5/3 72/4/3 73/7/3
f 73/7/4 74/6/4 75/9/4
f 75/9/5 76/8/5 77/11/5
f 77/75/6 78/12/6 79/14/6
f 79/14/7 80/13/7 81/16/7
f 81/16/8 82/15/8 83/18/8
f 83/18/9 84/17/9 85/20/9
f 85/20/10 86/19/10 87/22/10
f 87/22/11 88/21/11 89/24/11
f 89/24/12 90/23/12 91/26/12
f 91/76/13 92/27/13 93/29/13
f 93/29/14 94/28/14 95/31/14
f 95/31/15 96/30/15 97/33/15
f 97/33/16 98/32/16 99/35/16
f 99/35/17 100/34/17 101/37/17
f 101/37/18 102/36/18 103/39/18
f 103/39/19 104/38/19 105/41/19
f 105/41/20 106/40/20 107/43/20
f 107/77/21 108/44/21 109/46/21
f 109/46/22 110/45/22 111/48/22
f 111/48/23 112/47/23 113/50/23
f 113/50/24 114/49/24 115/52/24
f 115/52/25 116/51/25 117/54/25
f 117/54/26 118/53/26 119/56/26
f 119/56/27 120/55/27 121/58/27
f 121/58/28 122/57/28 123/60/28
f 123/78/29 124/61/29 125/63/29
f 125/63/30 126/62/30 127/65/30
f 74/79/31 72/80/31 70/66/31
f 70/66/31 76/81/31 74/79/31
f 86/82/31 80/83/31 78/84/31
f 86/82/31 84/85/31 82/86/31
f 90/87/31 88/88/31 86/82/31
f 94/89/31 92/90/31 90/87/31
f 98/91/31 96/92/31 94/89/31
f 94/89/31 100/93/31 98/91/31
f 106/94/31 104/95/31 102/68/31
f 102/68/31 108/96/31 106/94/31
f 114/97/31 112/98/31 110/99/31
f 110/99/31 116/100/31 114/97/31
f 122/101/31 120/102/31 118/67/31
f 126/103/31 124/104/31 122/101/31
f 130/105/31 128/106/31 126/103/31
f 70/66/31 68/107/31 130/105/31
f 78/84/31 76/81/31 70/66/31
f 86/82/31 82/86/31 80/83/31
f 102/68/31 90/87/31 86/82/31
f 102/68/31 100/93/31 94/89/31
f 110/99/31 108/96/31 102/68/31
f 118/67/31 116/100/31 110/99/31
f 70/66/31 122/101/31 118/67/31
f 70/66/31 130/105/31 126/103/31
f 86/82/31 78/84/31 70/66/31
f 102/68/31 94/89/31 90/87/31
f 118/67/31 110/99/31 102/68/31
f 70/66/31 126/103/31 122/101/31
f 102/68/31 86/82/31 70/66/31
f 129/71/32 130/69/32 67/70/32
f 127/65/33 128/64/33 129/71/33
f 127/108/34 129/109/34 67/110/34
f 123/111/34 125/112/34 127/108/34
f 119/113/34 121/114/34 123/111/34
f 115/72/34 117/115/34 119/113/34
f 111/116/34 113/117/34 115/72/34
f 107/118/34 109/119/34 111/116/34
f 99/74/34 105/120/34 107/118/34
f 99/74/34 101/121/34 103/122/34
f 91/123/34 97/124/34 99/74/34
f 91/123/34 93/125/34 95/126/34
f 87/127/34 89/128/34 91/123/34
f 83/73/34 85/129/34 87/127/34
f 79/130/34 81/131/34 83/73/34
f 75/132/34 77/133/34 79/130/34
f 71/134/34 73/135/34 75/132/34
f 75/132/34 69/136/34 71/134/34
f 115/72/34 127/108/34 67/110/34
f 115/72/34 119/113/34 123/111/34
f 99/74/34 111/116/34 115/72/34
f 99/74/34 103/122/34 105/120/34
f 91/123/34 95/126/34 97/124/34
f 83/73/34 87/127/34 91/123/34
f 67/110/34 79/130/34 83/73/34
f 67/110/34 69/136/34 75/132/34
f 115/72/34 123/111/34 127/108/34
f 99/74/34 107/118/34 111/116/34
f 83/73/34 91/123/34 99/74/34
f 67/110/34 75/132/34 79/130/34
f 83/73/34 115/72/34 67/110/34
usemtl Material.002
f 32/137/35 10/138/35 33/139/35
f 1/140/36 10/138/36 2/141/36
f 31/142/37 10/138/37 32/137/37
f 30/143/38 10/138/38 31/142/38
f 29/144/39 10/138/39 30/143/39
f 28/145/40 10/138/40 29/144/40
f 27/146/41 10/138/41 28/145/41
f 26/147/42 10/138/42 27/146/42
f 25/148/43 10/138/43 26/147/43
f 24/149/44 10/138/44 25/148/44
f 23/150/45 10/138/45 24/149/45
f 22/151/46 10/138/46 23/150/46
f 21/152/47 10/138/47 22/151/47
f 20/153/48 10/138/48 21/152/48
f 19/154/49 10/138/49 20/153/49
f 18/155/50 10/138/50 19/154/50
f 17/156/51 10/138/51 18/155/51
f 16/157/52 10/138/52 17/156/52
f 15/158/53 10/138/53 16/157/53
f 14/159/54 10/138/54 15/158/54
f 13/160/55 10/138/55 14/159/55
f 12/161/56 10/138/56 13/160/56
f 11/162/57 10/138/57 12/161/57
f 9/163/58 10/138/58 11/162/58
f 8/164/59 10/138/59 9/163/59
f 7/165/60 10/138/60 8/164/60
f 6/166/61 10/138/61 7/165/61
f 5/167/62 10/138/62 6/166/62
f 4/168/63 10/138/63 5/167/63
f 3/169/64 10/138/64 4/168/64
f 33/139/65 10/138/65 1/140/65
f 2/141/66 10/138/66 3/169/66
f 1/170/34 5/171/34 18/172/34
f 30/173/34 33/174/34 1/170/34
f 30/173/34 31/175/34 32/176/34
f 28/177/34 29/178/34 30/173/34
f 30/173/34 27/179/34 28/177/34
f 22/180/34 25/181/34 26/182/34
f 22/180/34 23/183/34 24/184/34
f 20/185/34 21/186/34 22/180/34
f 18/172/34 19/187/34 20/185/34
f 16/188/34 17/189/34 18/172/34
f 14/190/34 15/191/34 16/188/34
f 12/192/34 13/193/34 14/190/34
f 14/190/34 11/194/34 12/192/34
f 5/171/34 8/195/34 9/196/34
f 5/171/34 6/197/34 7/198/34
f 3/199/34 4/200/34 5/171/34
f 5/171/34 2/201/34 3/199/34
f 30/173/34 32/176/34 33/174/34
f 26/182/34 27/179/34 30/173/34
f 22/180/34 24/184/34 25/181/34
f 26/182/34 20/185/34 22/180/34
f 9/196/34 16/188/34 18/172/34
f 9/196/34 11/194/34 14/190/34
f 5/171/34 7/198/34 8/195/34
f 1/170/34 2/201/34 5/171/34
f 26/182/34 30/173/34 1/170/34
f 18/172/34 20/185/34 26/182/34
f 9/196/34 14/190/34 16/188/34
f 18/172/34 5/171/34 9/196/34
f 18/172/34 26/182/34 1/170/34
usemtl Material.001
f 65/202/67 43/203/67 66/204/67
f 34/205/68 43/203/68 35/206/68
f 64/207/69 43/203/69 65/202/69
f 63/208/70 43/203/70 64/207/70
f 62/209/71 43/203/71 63/208/71
f 61/210/72 43/203/72 62/209/72
f 60/211/73 43/203/73 61/210/73
f 59/212/74 43/203/74 60/211/74
f 58/213/75 43/203/75 59/212/75
f 57/214/76 43/203/76 58/213/76
f 56/215/77 43/203/77 57/214/77
f 55/216/78 43/203/78 56/215/78
f 54/217/79 43/203/79 55/216/79
f 53/218/80 43/203/80 54/217/80
f 52/219/81 43/203/81 53/218/81
f 51/220/82 43/203/82 52/219/82
f 50/221/83 43/203/83 51/220/83
f 49/222/84 43/203/84 50/221/84
f 48/223/85 43/203/85 49/222/85
f 47/224/86 43/203/86 48/223/86
f 46/225/87 43/203/87 47/224/87
f 45/226/88 43/203/88 46/225/88
f 44/227/89 43/203/89 45/226/89
f 42/228/90 43/203/90 44/227/90
f 41/229/91 43/203/91 42/228/91
f 40/230/92 43/203/92 41/229/92
f 39/231/93 43/203/93 40/230/93
f 38/232/94 43/203/94 39/231/94
f 37/233/95 43/203/95 38/232/95
f 36/234/96 43/203/96 37/233/96
f 66/204/97 43/203/97 34/205/97
f 35/206/98 43/203/98 36/234/98
f 59/235/34 42/236/34 51/237/34
f 63/238/34 66/239/34 34/240/34
f 63/238/34 64/241/34 65/242/34
f 61/243/34 62/244/34 63/238/34
f 63/238/34 60/245/34 61/243/34
f 57/246/34 58/247/34 59/235/34
f 59/235/34 56/248/34 57/246/34
f 53/249/34 54/250/34 55/251/34
f 55/251/34 52/252/34 53/249/34
f 47/253/34 50/254/34 51/237/34
f 47/253/34 48/255/34 49/256/34
f 45/257/34 46/258/34 47/253/34
f 42/236/34 44/259/34 45/257/34
f 40/260/34 41/261/34 42/236/34
f 38/262/34 39/263/34 40/260/34
f 34/240/34 37/264/34 38/262/34
f 34/240/34 35/265/34 36/266/34
f 63/238/34 65/242/34 66/239/34
f 59/235/34 60/245/34 63/238/34
f 55/251/34 56/248/34 59/235/34
f 51/237/34 52/252/34 55/251/34
f 47/253/34 49/256/34 50/254/34
f 42/236/34 45/257/34 47/253/34
f 38/262/34 40/260/34 42/236/34
f 34/240/34 36/266/34 37/264/34
f 59/235/34 63/238/34 34/240/34
f 51/237/34 55/251/34 59/235/34
f 42/236/34 47/253/34 51/237/34
f 34/240/34 38/262/34 42/236/34
f 42/236/34 59/235/34 34/240/34
